PathFileType  4	(X/Y/Z) C:\Users\antoi\Documents\MyRepositories\mobilecap\ResultsAnalysis
DataRate	CameraRate	NumFrames	NumMarkers	Units	OrigDataRate	OrigDataStartFrame	OrigNumFrames
100.0	100.0	6	51	mm	100.0	31	245
Frame#	Time	r_knee			r_shank_antsup			r_ankle			r_calc			r_5meta			r_toe			L_knee			L_shank_antsup			L_ankle			L_calc			L_5meta			L_toe			r_sh2			r_sh3			r_sh4			L_sh2			L_sh3			r_thigh1			r_thigh2			r_thigh3			r_thigh4			r_thigh5			L_thigh1			L_thigh2			L_thigh3			L_thigh4			r.ASIS			r.PSIS			L.ASIS			L.PSIS			C7			R_Shoulder			L_Shoulder			R_Sternum			L_Sternum			R_humerus			R_elbow_med			R_elbow_lat			R_forearm			R_wrist_radius			R_wrist_ulna			L_humerus			L_elbow_med			L_elbow_lat			L_forearm			L_wrist_radius			L_wrist_ulna			R_HJC			L_HJC			R_HJC_reg			L_HJC_reg			
		X1	Y1	Z1	X2	Y2	Z2	X3	Y3	Z3	X4	Y4	Z4	X5	Y5	Z5	X6	Y6	Z6	X7	Y7	Z7	X8	Y8	Z8	X9	Y9	Z9	X10	Y10	Z10	X11	Y11	Z11	X12	Y12	Z12	X13	Y13	Z13	X14	Y14	Z14	X15	Y15	Z15	X16	Y16	Z16	X17	Y17	Z17	X18	Y18	Z18	X19	Y19	Z19	X20	Y20	Z20	X21	Y21	Z21	X22	Y22	Z22	X23	Y23	Z23	X24	Y24	Z24	X25	Y25	Z25	X26	Y26	Z26	X27	Y27	Z27	X28	Y28	Z28	X29	Y29	Z29	X30	Y30	Z30	X31	Y31	Z31	X32	Y32	Z32	X33	Y33	Z33	X34	Y34	Z34	X35	Y35	Z35	X36	Y36	Z36	X37	Y37	Z37	X38	Y38	Z38	X39	Y39	Z39	X40	Y40	Z40	X41	Y41	Z41	X42	Y42	Z42	X43	Y43	Z43	X44	Y44	Z44	X45	Y45	Z45	X46	Y46	Z46	X47	Y47	Z47	X48	Y48	Z48	X49	Y49	Z49	X50	Y50	Z50	X51	Y51	Z51	

31	0.30000000	-1067.34143	838.37682	-419.11737	-1057.81824	709.41782	-430.69962	-1222.36499	407.11722	-432.46237	-1291.08030	374.76474	-478.70672	-1092.79839	344.28545	-387.80411	-1054.85587	365.48164	-462.49451	-1102.24734	833.72260	-744.28245	-1075.77541	720.68728	-726.62509	-1234.93197	405.28928	-722.51731	-1298.77605	377.07498	-672.21730	-1097.87184	344.93834	-757.89935	-1062.69789	367.43594	-689.69408	-1086.80538	598.56524	-453.87946	-1117.88469	713.58738	-379.75472	-1138.09804	597.94948	-386.14761	-1154.85314	739.10084	-767.68506	-1161.52920	618.34328	-780.09713	-972.99250	1073.82754	-435.37847	-974.65961	962.74067	-448.47919	-1002.20458	933.51747	-394.48455	-1055.88845	1062.85152	-357.55821	-1054.89940	945.93931	-381.16534	-1023.42736	1088.03459	-764.66156	-1016.10257	951.04634	-750.21196	-1132.85485	1077.36776	-793.90938	-1125.03870	940.86894	-773.17312	-1000.21555	1332.65390	-437.06214	-1199.09284	1407.72712	-509.66601	-1016.16924	1327.28829	-701.01430	-1207.15042	1404.79794	-610.64449	-1033.34983	1884.37053	-573.05071	-970.43030	1794.85345	-386.39317	-973.12811	1810.28994	-750.64334	-917.77474	1769.90680	-549.86218	-921.33794	1768.76918	-595.30467	-1000.98709	1628.17483	-309.29321	-1153.38831	1439.63972	-331.25878	-1109.85497	1457.25575	-260.37626	-1043.02049	1294.67893	-262.32191	-1030.74423	1172.33542	-258.95281	-1058.72135	1168.05512	-228.09336	-1009.30842	1640.47435	-836.28347	-1154.03190	1465.30581	-807.93262	-1116.62733	1470.96487	-878.83177	-1045.11155	1318.99711	-855.84613	-1031.06521	1202.21118	-875.49144	-1063.75977	1201.28132	-909.85033	-1099.22489	1271.13654	-465.30325	-1111.54598	1255.61207	-677.77268	-1089.80882	1271.53151	-465.90892	-1103.68796	1266.48596	-639.84535	
32	0.31000000	-1064.72971	837.82534	-419.01330	-1055.75817	708.78544	-430.71932	-1222.12166	407.49813	-432.33673	-1291.04251	375.04678	-478.75320	-1092.74843	344.26494	-387.79703	-1054.79924	365.41439	-462.45850	-1100.05499	833.10981	-744.79735	-1073.84479	720.03797	-726.77667	-1234.83628	405.49011	-722.51013	-1298.93422	377.03781	-671.74810	-1097.86782	344.89887	-757.91109	-1062.67388	367.39434	-689.72071	-1085.45894	598.09427	-454.13327	-1115.87836	713.45546	-379.87638	-1136.81552	597.77880	-386.39500	-1152.90062	738.80509	-767.84269	-1160.28186	618.07566	-779.90537	-971.40832	1073.27397	-435.52501	-972.82050	962.11253	-448.87333	-1000.18353	932.89616	-394.51535	-1054.33153	1062.18347	-357.73161	-1052.89753	945.17940	-381.32767	-1021.96350	1087.40679	-764.79755	-1014.24809	950.45297	-750.50484	-1131.29392	1076.45525	-793.98720	-1123.10703	940.03629	-773.57032	-998.80759	1331.30560	-437.44561	-1197.14239	1407.91866	-509.68889	-1015.08845	1326.02908	-701.15193	-1205.35389	1405.04706	-610.57821	-1026.70217	1882.99939	-573.00421	-964.37471	1792.91708	-386.47084	-967.10565	1808.57491	-750.50169	-912.07960	1767.64399	-549.85907	-915.84937	1766.53116	-595.54049	-996.50192	1626.61104	-309.27499	-1150.66955	1439.54569	-331.32586	-1107.04252	1456.71556	-260.39158	-1041.84849	1293.56814	-262.40934	-1030.72340	1171.08072	-258.96175	-1058.73207	1167.10188	-228.18748	-1004.93486	1639.36268	-836.70891	-1151.23215	1465.68790	-808.26557	-1113.97564	1470.79434	-879.10286	-1043.39321	1318.26286	-856.36075	-1030.26804	1201.57273	-876.24383	-1063.12777	1200.74284	-910.28116	-1098.29583	1270.55544	-465.42223	-1111.01876	1255.11046	-677.87375	-1088.85749	1270.93760	-466.13206	-1103.00086	1265.99173	-639.89967	
33	0.32000000	-1061.86685	837.03663	-419.24068	-1053.38587	707.99843	-430.86578	-1221.79467	407.88435	-432.27322	-1290.95350	375.32261	-478.76877	-1092.67368	344.26320	-387.81832	-1054.67883	365.34413	-462.46352	-1097.63589	832.37042	-745.18422	-1071.66198	719.31454	-727.12246	-1234.63149	405.73922	-722.49103	-1298.83699	377.53509	-672.09987	-1097.84744	344.87265	-757.92520	-1062.63150	367.33742	-689.75606	-1083.92143	597.61476	-454.33288	-1113.46639	713.07879	-379.99733	-1135.27617	597.55813	-386.60389	-1150.65678	738.45429	-768.15839	-1158.67488	617.85146	-780.03957	-969.71660	1072.61496	-435.94759	-970.68831	961.49237	-449.40071	-997.92900	932.19302	-394.68206	-1052.36660	1061.27592	-357.94004	-1050.67036	944.25927	-381.74961	-1020.30715	1086.76725	-764.93384	-1012.20393	949.78244	-750.69625	-1129.51866	1075.37693	-794.04175	-1120.97805	939.03477	-774.03842	-997.44368	1329.83887	-437.77260	-1195.19518	1407.99961	-509.75559	-1013.99818	1324.67058	-701.29792	-1203.54952	1405.19895	-610.55709	-1020.05557	1881.45072	-572.93508	-958.26206	1790.80336	-386.63153	-960.97820	1806.69352	-750.32831	-906.56770	1765.21965	-550.63449	-910.30621	1763.96670	-595.85277	-991.92671	1624.92546	-309.36588	-1147.78277	1439.40874	-331.23727	-1104.06387	1456.09104	-260.24343	-1040.51693	1292.30703	-262.52620	-1030.45733	1169.70345	-259.01386	-1058.51780	1166.02676	-228.30590	-1000.49628	1638.04436	-836.88396	-1148.41757	1465.89478	-808.60332	-1111.20480	1470.49861	-879.25844	-1041.45678	1317.49505	-857.08899	-1029.28576	1200.92864	-877.14541	-1062.34591	1199.80994	-910.21852	-1097.40892	1269.86870	-465.55308	-1110.47475	1254.51565	-677.99057	-1087.93755	1270.21512	-466.32493	-1102.32888	1265.39080	-639.96576	
34	0.33000000	-1058.61750	836.03521	-419.68982	-1050.71746	707.03036	-431.20442	-1221.46087	408.16923	-432.40612	-1290.82428	375.55462	-478.72420	-1092.60587	344.25006	-387.84835	-1054.52980	365.26374	-462.47347	-1094.84539	831.45190	-745.33217	-1069.18670	718.41876	-727.54825	-1234.36124	406.09794	-722.54298	-1298.62556	378.12444	-672.58115	-1097.79793	344.84467	-757.91038	-1062.56484	367.26980	-689.77860	-1082.13446	596.95079	-454.47496	-1110.63672	712.64723	-379.92954	-1133.36989	597.21108	-386.81396	-1148.03199	738.02001	-768.49876	-1156.72329	617.60932	-780.54632	-967.89157	1071.95988	-436.56970	-968.23202	960.85407	-449.98416	-995.35373	931.32091	-395.17724	-1050.11250	1060.22010	-358.16229	-1048.16062	943.00174	-382.36981	-1018.36548	1086.11555	-765.07333	-1009.79749	949.13934	-750.90476	-1127.46183	1074.27608	-794.20576	-1118.48374	937.88868	-774.52167	-996.12732	1328.23324	-438.12534	-1193.20010	1407.96947	-509.96633	-1012.85179	1323.21508	-701.63000	-1201.69910	1405.27260	-610.79164	-1013.40858	1879.77399	-572.97960	-952.04084	1788.62386	-386.65081	-954.84002	1804.69778	-750.34778	-901.21714	1762.46652	-552.03158	-904.64899	1761.27948	-596.10558	-987.24505	1623.03197	-309.53674	-1144.84908	1439.07861	-331.17805	-1100.92753	1455.29570	-260.20069	-1038.96140	1290.87116	-262.61334	-1029.99632	1168.19486	-259.23457	-1058.05633	1164.73841	-228.51976	-995.93149	1636.48863	-836.93767	-1145.46004	1465.80160	-808.91465	-1108.26136	1470.15228	-879.66269	-1039.23912	1316.67589	-858.06515	-1028.06788	1200.06695	-877.83043	-1061.24034	1198.96352	-910.59645	-1096.56158	1269.06614	-465.84772	-1109.87532	1253.84045	-678.27898	-1087.03660	1269.31915	-466.59472	-1101.67138	1264.67521	-640.21151	
35	0.34000000	-1054.83367	834.88914	-419.99105	-1047.79764	705.99803	-431.58931	-1221.10153	408.40649	-432.62699	-1290.66519	375.78227	-478.65588	-1092.54191	344.19901	-387.87039	-1054.37628	365.16482	-462.43955	-1091.53930	830.42142	-745.54110	-1066.31477	717.34326	-727.85764	-1234.06128	406.51835	-722.62345	-1298.62394	378.30983	-672.25974	-1097.75831	344.77777	-757.75805	-1062.46879	367.19000	-689.74354	-1080.10399	596.08059	-454.72471	-1107.39908	711.94766	-380.15717	-1131.23829	596.83581	-386.98581	-1144.98574	737.52967	-768.85058	-1154.63071	617.21210	-780.90870	-965.92810	1071.38275	-437.17228	-965.54899	960.12032	-450.66286	-992.38090	930.36443	-395.75487	-1047.78171	1058.97007	-358.54529	-1045.10943	941.65939	-382.72018	-1016.16854	1085.35611	-765.15723	-1006.91255	948.45930	-751.00683	-1125.12594	1073.10411	-794.45625	-1115.50000	936.63500	-775.08050	-994.84212	1326.42479	-438.53869	-1191.20846	1407.83738	-510.24485	-1011.68704	1321.64520	-702.07829	-1199.80611	1405.26593	-611.15410	-1006.68333	1877.83516	-573.03802	-945.75521	1786.29226	-386.67798	-948.69626	1802.53603	-750.46034	-895.59442	1759.47167	-552.81170	-898.81330	1758.52792	-596.20304	-982.41450	1620.91237	-309.75374	-1141.85479	1438.36784	-331.25003	-1097.61299	1454.18813	-260.38154	-1037.22441	1289.26408	-262.72375	-1029.31625	1166.57272	-259.59343	-1057.34494	1163.29046	-228.77321	-991.27455	1634.78246	-837.08343	-1142.31379	1465.43691	-809.21155	-1105.15557	1469.65193	-880.26986	-1036.93910	1315.74731	-859.03073	-1026.60897	1198.92302	-878.19349	-1059.82931	1198.24828	-911.56656	-1095.76446	1268.11285	-466.26406	-1109.28500	1253.08656	-678.69634	-1086.21588	1268.26384	-466.98691	-1101.00977	1263.83900	-640.62125	
36	0.35000000	-1050.63378	833.60769	-420.19251	-1044.65373	704.98026	-431.85249	-1220.65638	408.80762	-432.70636	-1290.50100	376.03363	-478.57441	-1092.46166	344.13698	-387.90667	-1054.22593	365.03895	-462.38751	-1087.70703	829.29085	-746.06292	-1062.96991	716.15239	-728.07032	-1233.74699	406.87408	-722.58129	-1298.66304	378.41689	-671.58404	-1097.72194	344.73177	-757.56200	-1062.35538	367.02449	-689.66601	-1077.90583	595.18340	-455.07175	-1103.90267	711.05233	-380.57303	-1128.96271	596.48392	-387.05924	-1141.48332	736.93939	-769.24203	-1152.28055	616.60927	-780.94368	-963.80712	1070.78216	-437.81442	-962.53178	959.42490	-451.28035	-988.91710	929.45542	-396.11149	-1045.07233	1057.70503	-358.70016	-1041.38328	940.50406	-382.59518	-1013.90493	1084.33217	-765.37335	-1003.59106	947.64003	-750.96350	-1122.59133	1071.77983	-795.12713	-1112.02794	935.25035	-775.87138	-993.56681	1324.37408	-438.93353	-1189.28927	1407.57882	-510.49802	-1010.56318	1319.87353	-702.37767	-1197.89565	1405.10952	-611.33012	-999.90506	1875.51335	-572.99891	-939.45593	1783.59777	-386.94357	-942.48035	1800.12860	-750.52719	-889.57954	1756.31775	-552.72529	-892.95291	1755.49738	-596.33886	-977.46273	1618.56366	-310.01956	-1138.84501	1437.35122	-331.16316	-1094.12077	1452.80116	-260.51767	-1035.30475	1287.41082	-262.98666	-1028.40833	1164.79654	-259.99205	-1056.36296	1161.74357	-228.97477	-986.59290	1632.96529	-837.37177	-1139.04902	1464.87043	-809.51282	-1101.94040	1468.85062	-880.79062	-1034.99377	1314.66887	-859.49130	-1024.88903	1197.72285	-878.69048	-1058.24244	1197.15330	-912.26571	-1095.02433	1266.97798	-466.59237	-1108.76733	1252.17319	-679.02595	-1085.50901	1267.08721	-467.38433	-1100.32451	1262.83664	-640.96138	
